<?xml version="1.0" standalone="no"?>
<!DOCTYPE svg PUBLIC "-//W3C//DTD SVG 20010904//EN"
 "http://www.w3.org/TR/2001/REC-SVG-20010904/DTD/svg10.dtd">
<svg version="1.0" xmlns="http://www.w3.org/2000/svg"
 width="700.000000pt" height="700.000000pt" viewBox="0 0 700.000000 700.000000"
 preserveAspectRatio="xMidYMid meet">
<metadata>
Created by potrace 1.14, written by Peter Selinger 2001-2017
</metadata>
<g transform="translate(0.000000,700.000000) scale(0.100000,-0.100000)"
fill="#000000" stroke="none">
<path d="M3310 6320 c-258 -61 -463 -202 -683 -469 -163 -198 -344 -525 -447
-806 -28 -77 -55 -150 -60 -161 -6 -16 -31 -29 -92 -48 -126 -40 -195 -70
-413 -181 -290 -147 -436 -246 -601 -410 -382 -378 -457 -809 -215 -1230 166
-289 573 -601 1012 -776 84 -33 278 -99 339 -116 119 -32 287 -71 325 -77 22
-3 51 -8 65 -10 112 -21 249 -39 395 -52 39 -3 90 -7 115 -10 64 -5 641 -5
725 1 39 2 84 7 100 10 141 28 235 155 203 272 -13 47 -71 104 -135 134 -44
20 -62 21 -208 19 -330 -5 -663 1 -730 15 -11 2 -51 7 -88 10 -37 4 -78 8 -90
11 -12 2 -42 6 -66 9 -25 3 -54 8 -65 10 -12 3 -34 7 -50 10 -55 8 -136 26
-136 30 0 1 -9 45 -19 96 -10 52 -22 114 -25 139 -3 25 -8 59 -11 75 -33 208
-40 331 -40 715 0 317 6 467 20 534 2 11 7 48 10 81 6 71 12 112 26 181 5 28
12 64 15 80 3 22 38 178 49 224 84 339 276 758 441 960 33 41 159 167 192 192
36 29 124 76 171 93 64 22 89 26 156 25 110 -2 129 -6 232 -58 128 -63 207
-140 395 -380 61 -78 123 -115 197 -118 160 -6 258 159 186 311 -34 73 -132
202 -228 303 -185 192 -403 324 -605 365 -99 21 -268 19 -362 -3z m-1314
-1988 c-2 -4 -7 -41 -11 -82 -4 -41 -8 -77 -10 -80 -2 -3 -6 -43 -10 -90 -3
-47 -8 -101 -11 -120 -5 -46 -6 -649 0 -676 2 -11 7 -60 11 -110 3 -49 8 -100
10 -114 2 -14 7 -50 10 -80 3 -30 8 -71 11 -91 2 -20 7 -53 9 -73 3 -20 9 -55
15 -78 5 -24 10 -55 10 -70 l0 -26 -52 20 c-118 43 -472 228 -498 258 -3 3
-23 19 -46 35 -338 245 -426 555 -239 840 49 75 199 226 285 286 102 73 245
151 375 207 115 49 152 61 141 44z"/>
<path d="M3192 5027 c-183 -20 -286 -107 -277 -234 3 -36 39 -113 54 -113 3 0
17 -10 31 -23 52 -48 119 -71 200 -70 177 3 590 3 645 -1 243 -16 621 -68 641
-89 11 -11 52 -238 69 -386 4 -30 8 -62 10 -72 19 -99 29 -864 13 -1004 -4
-33 -10 -85 -13 -115 -15 -134 -33 -249 -60 -381 -77 -368 -230 -757 -402
-1022 -165 -256 -352 -395 -554 -415 -99 -10 -179 5 -272 51 -102 50 -164 109
-277 262 -107 144 -157 194 -224 225 -190 86 -372 -104 -281 -295 44 -94 184
-267 308 -384 149 -139 375 -261 537 -290 47 -8 273 -8 331 1 91 13 238 70
343 134 75 44 214 163 276 234 30 34 60 68 65 74 94 103 254 383 353 616 39
93 130 346 138 384 2 11 7 23 11 27 5 3 73 28 153 54 265 87 445 165 635 279
87 51 158 99 175 116 3 3 23 18 45 35 61 45 204 192 263 270 68 91 156 269
183 370 27 100 35 334 14 423 -48 204 -148 376 -319 547 -189 189 -414 332
-776 492 -178 79 -589 195 -802 227 -21 3 -55 8 -75 11 -21 3 -49 8 -63 10
-23 4 -45 7 -145 20 -37 5 -115 12 -225 20 -53 5 -386 15 -545 18 -60 1 -143
-1 -183 -6z m1908 -722 c127 -54 298 -146 408 -219 282 -186 433 -441 391
-660 -14 -69 -46 -145 -97 -226 -51 -81 -203 -227 -312 -299 -104 -70 -333
-184 -449 -225 l-73 -26 6 23 c5 22 8 37 21 130 2 19 7 60 10 93 4 32 8 70 10
83 27 159 26 778 -1 1011 -7 60 -23 195 -30 245 -3 22 -9 57 -14 77 -12 57
-19 57 130 -7z"/>
<path d="M3447 4154 c-1 -1 -22 -4 -47 -7 -115 -15 -229 -72 -324 -164 -132
-128 -206 -307 -207 -501 -1 -292 161 -516 431 -597 73 -22 247 -27 330 -9
243 51 431 214 495 430 23 77 28 226 9 306 -69 297 -330 527 -612 541 -40 2
-73 3 -75 1z m138 -454 c36 -14 91 -65 111 -102 8 -15 15 -50 15 -78 3 -91
-43 -165 -127 -206 -91 -44 -181 -29 -242 40 -76 86 -61 216 35 308 21 19 52
40 68 45 37 12 100 9 140 -7z"/>
</g>
</svg>
